Coordinates
version=1
nRows=9
nColumns=24
inDegrees=yes

Units are S.I. units (second, meters, Newtons, ...)
Angles are in degrees.

endheader
time	pelvis_tilt	pelvis_list	pelvis_rotation	pelvis_tx	pelvis_ty	pelvis_tz	hip_flexion_r	hip_adduction_r	hip_rotation_r	knee_angle_r	ankle_angle_r	subtalar_angle_r	mtp_angle_r	hip_flexion_l	hip_adduction_l	hip_rotation_l	knee_angle_l	ankle_angle_l	subtalar_angle_l	mtp_angle_l	lumbar_extension	lumbar_bending	lumbar_rotation
      0.91233333	      0.42142420	     -1.00490319	     -2.05254486	     -0.17292526	      0.97757144	      0.30622675	    -11.15786769	      4.58785499	     -2.56117098	    -12.18405278	     16.20223616	     -0.11024573	      0.74622993	     26.07154918	      0.50015823	     -3.49041351	    -13.67847148	      1.34809159	     -4.11568056	     -3.11959753	     -2.14701779	      4.50529678	      7.77846408
      0.91650000	      0.36949885	     -0.92912929	     -2.06951302	     -0.16707534	      0.97700231	      0.30592026	    -11.11802132	      4.46729862	     -2.48611902	    -12.87938517	     16.35511580	     -0.21381671	      0.77373367	     25.95030447	      0.66424471	     -3.42676792	    -13.64241021	      1.11732663	     -4.14454337	     -2.97938879	     -2.03383600	      4.41965463	      7.78542477
      0.92066667	      0.30956707	     -0.83453033	     -2.07103654	     -0.16122629	      0.97645409	      0.30559201	    -11.03591468	      4.32728555	     -2.43441077	    -13.63482476	     16.42007044	     -0.34010669	      0.79847964	     25.85715253	      0.85230764	     -3.35480691	    -13.70381859	      0.85177512	     -4.22580333	     -2.87239242	     -1.92844476	      4.29773034	      7.79980428
      0.92483333	      0.20689953	     -0.76976273	     -2.07793189	     -0.15540620	      0.97589300	      0.30523614	    -10.85544934	      4.21464374	     -2.38112695	    -14.49054752	     16.49881069	     -0.42728406	      0.86742905	     25.79870583	      1.02148141	     -3.17546492	    -13.79446500	      0.54221945	     -4.52924617	     -2.62569679	     -1.76491276	      4.24202902	      7.83856361
      0.92900000	      0.19917112	     -0.62113175	     -2.08290996	     -0.14946454	      0.97553124	      0.30485865	    -10.76215502	      3.99426943	     -2.41260653	    -15.37308424	     16.51604501	     -0.35756532	      1.65791553	     25.59378456	      1.27909756	     -3.02906921	    -13.84915373	      0.15651618	     -4.86281282	     -0.23660328	     -1.70289000	      4.06132715	      7.82757665
      0.93316667	      0.04825432	     -0.56686006	     -2.07285913	     -0.14362965	      0.97499873	      0.30452793	    -10.48013596	      3.91145236	     -2.27878520	    -16.31815776	     16.49002925	     -0.65489216	      1.70059455	     25.61590361	      1.42355655	     -2.88632123	    -14.08718243	     -0.13989915	     -4.98364253	     -0.16727074	     -1.47243168	      4.00647973	      7.82903139
      0.93733333	     -0.01225339	     -0.44182432	     -2.05685774	     -0.13770483	      0.97466503	      0.30417277	    -10.28075246	      3.74115253	     -2.20089205	    -17.28408903	     16.39371943	     -0.87363064	      1.74106419	     25.51575729	      1.64480005	     -2.77514445	    -14.32031065	     -0.44544354	     -5.16019196	     -0.11409580	     -1.35524268	      3.84692603	      7.81645496
      0.94150000	     -0.12906431	     -0.35657888	     -2.04670308	     -0.13183717	      0.97429742	      0.30378719	     -9.95584499	      3.60904094	     -2.12305529	    -18.36964560	     16.30864962	     -1.04922726	      1.84116211	     25.45937734	      1.83770257	     -2.53672798	    -14.54067503	     -0.80112690	     -5.55753178	     -0.01093106	     -1.16085453	      3.75923404	      7.80011780
      0.94566667	     -0.20887194	     -0.23310873	     -2.02259385	     -0.12592647	      0.97402761	      0.30339947	     -9.64484863	      3.43338079	     -2.08199835	    -19.49491339	     16.13587488	     -1.20904317	      1.97027194	     25.36806115	      2.06571869	     -2.34917170	    -14.79820228	     -1.13382081	     -5.88940197	      0.10192864	     -1.01351600	      3.60899066	      7.76587178
